<svg width="200" height="23" viewBox="0 0 200 23" fill="none" xmlns="http://www.w3.org/2000/svg">
<path d="M31.8619 17.8446H43.819V22.0303H26.7617V0H43.819V4.18568H31.8619V17.8446ZM31.4511 8.76501H43.819V12.9507H31.4511V8.76501Z" fill="white"/>
<path d="M188.044 17.8446H200.001V22.0303H182.943V0H200.001V4.18568H188.044V17.8446ZM187.633 8.76501H200.001V12.9507H187.633V8.76501Z" fill="white"/>
<path d="M47.0801 22.0303L56.8988 0H61.9337L71.7833 22.0303H66.6849L58.6281 2.17105H60.2663L52.1785 22.0303H47.0801ZM51.9894 17.9529L53.3423 13.7672H64.672L66.0575 17.9529H51.9912H51.9894Z" fill="white"/>
<path d="M74.9431 22.0303V0H80.0416V17.8446H91.0859V22.0303H74.9414H74.9431Z" fill="white"/>
<path d="M163.678 22.0303V0H168.776V17.8446H179.82V22.0303H163.676H163.678Z" fill="white"/>
<path d="M101.029 22.0303V4.18568H93.0137V0H114.141V4.18568H106.126V22.0303H101.027H101.029Z" fill="white"/>
<path d="M140.289 22.0303V0H151.086C153.855 0 155.937 0.524285 157.333 1.57285C158.728 2.62142 159.426 4.00691 159.426 5.7276C159.426 6.88102 159.143 7.88318 158.577 8.73235C158.012 9.58152 157.235 10.2382 156.248 10.6988C155.261 11.1612 154.128 11.3916 152.85 11.3916L153.448 10.1006C154.832 10.1006 156.061 10.3258 157.13 10.7779C158.199 11.23 159.034 11.8952 159.631 12.7771C160.229 13.6589 160.528 14.7384 160.528 16.019C160.528 17.9082 159.784 19.3813 158.294 20.4402C156.803 21.5008 154.611 22.0303 151.717 22.0303H140.291H140.289ZM145.389 17.8446H151.337C152.659 17.8446 153.661 17.6297 154.342 17.2C155.022 16.7702 155.364 16.0826 155.364 15.1389C155.364 14.1952 155.022 13.5283 154.342 13.0779C153.659 12.6275 152.659 12.4006 151.337 12.4006H145.011V9.37868H150.455C151.693 9.37868 152.642 9.16381 153.303 8.73407C153.963 8.30433 154.295 7.64768 154.295 6.76757C154.295 5.88746 153.965 5.26176 153.303 4.83201C152.643 4.40227 151.693 4.1874 150.455 4.1874H145.388V17.8463L145.389 17.8446Z" fill="white"/>
<path d="M112.432 22.0303L122.25 0H127.285L137.135 22.0303H132.036L123.98 2.17105H125.618L117.53 22.0303H112.432Z" fill="white"/>
<path d="M124.785 22.0305C126.212 22.0305 127.368 20.8738 127.368 19.4469C127.368 18.02 126.212 16.8633 124.785 16.8633C123.358 16.8633 122.201 18.02 122.201 19.4469C122.201 20.8738 123.358 22.0305 124.785 22.0305Z" fill="white"/>
<path d="M0 22.0303V0H11.5721C13.9649 0 16.0741 0.455526 17.9013 1.3683C19.7269 2.28107 21.1553 3.55482 22.1833 5.19128C23.2112 6.82773 23.7252 8.76845 23.7252 11.0134C23.7252 13.2584 23.2112 15.1733 22.1833 16.8201C21.1553 18.4669 19.7269 19.7475 17.9013 20.6603C16.0758 21.573 13.9666 22.0286 11.5721 22.0286H0V22.0303ZM5.10017 17.8446H11.3194C12.7891 17.8446 14.0629 17.5661 15.1441 17.0109C16.2253 16.4557 17.0642 15.6632 17.6624 14.6353C18.2606 13.6073 18.5597 12.4006 18.5597 11.0169C18.5597 9.63309 18.2606 8.40059 17.6624 7.38124C17.0642 6.36361 16.2253 5.57633 15.1441 5.0211C14.0629 4.46587 12.7874 4.1874 11.3194 4.1874H5.10017V17.8463V17.8446Z" fill="white"/>
</svg>
