<svg width="863" height="96" viewBox="0 0 863 96" fill="none" xmlns="http://www.w3.org/2000/svg">
<path d="M137.436 76.9748H189.014V95.0303H115.436V0H189.014V18.0555H137.436V76.9748ZM135.664 37.8089H189.014V55.8644H135.664V37.8089Z" fill="white"/>
<path d="M811.147 76.9748H862.725V95.0303H789.146V0H862.725V18.0555H811.147V76.9748ZM809.375 37.8089H862.725V55.8644H809.375V37.8089Z" fill="white"/>
<path d="M203.088 95.0303L245.442 0H267.161L309.648 95.0303H287.656L252.902 9.36511H259.968L225.081 95.0303H203.088ZM224.265 77.442L230.101 59.3865H278.973L284.949 77.442H224.272H224.265Z" fill="white"/>
<path d="M323.277 95.0303V0H345.27V76.9748H392.911V95.0303H323.27H323.277Z" fill="white"/>
<path d="M706.039 95.0303V0H728.032V76.9748H775.673V95.0303H706.031H706.039Z" fill="white"/>
<path d="M435.801 95.0303V18.0555H401.225V0H492.362V18.0555H457.786V95.0303H435.793H435.801Z" fill="white"/>
<path d="M605.158 95.0303V0H651.732C663.677 0 672.657 2.26157 678.678 6.7847C684.699 11.3078 687.709 17.2843 687.709 24.7067C687.709 29.6821 686.486 34.0051 684.046 37.6681C681.607 41.331 678.255 44.1636 673.999 46.1508C669.743 48.1454 664.856 49.139 659.339 49.139L661.92 43.5704C667.889 43.5704 673.191 44.5417 677.803 46.4919C682.415 48.442 686.018 51.3116 688.591 55.1155C691.172 58.9194 692.462 63.576 692.462 69.1001C692.462 77.2492 689.251 83.6038 682.823 88.1714C676.394 92.7465 666.94 95.0303 654.453 95.0303H605.166H605.158ZM627.158 76.9748H652.814C658.516 76.9748 662.839 76.0479 665.776 74.1942C668.712 72.3405 670.188 69.3745 670.188 65.3036C670.188 61.2328 668.712 58.3558 665.776 56.4131C662.832 54.4704 658.516 53.4916 652.814 53.4916H625.527V40.4561H649.01C654.349 40.4561 658.442 39.5292 661.297 37.6755C664.144 35.8217 665.575 32.9892 665.575 29.1927C665.575 25.3963 664.152 22.6972 661.297 20.8435C658.45 18.9897 654.349 18.0629 649.01 18.0629H627.151V76.9822L627.158 76.9748Z" fill="white"/>
<path d="M484.99 95.0303L527.345 0H549.063L591.551 95.0303H569.558L534.804 9.36511H541.87L506.983 95.0303H484.99Z" fill="white"/>
<path d="M538.274 95.0311C544.429 95.0311 549.418 90.0414 549.418 83.8864C549.418 77.7314 544.429 72.7417 538.274 72.7417C532.119 72.7417 527.129 77.7314 527.129 83.8864C527.129 90.0414 532.119 95.0311 538.274 95.0311Z" fill="white"/>
<path d="M0 95.0303V0H49.9176C60.2392 0 69.3374 1.96497 77.2195 5.90232C85.0942 9.83967 91.2561 15.3342 95.6902 22.3932C100.124 29.4523 102.341 37.8238 102.341 47.5077C102.341 57.1917 100.124 65.452 95.6902 72.5555C91.2561 79.659 85.0942 85.1832 77.2195 89.1205C69.3448 93.0579 60.2466 95.0229 49.9176 95.0229H0V95.0303ZM22.0002 76.9748H48.8276C55.1674 76.9748 60.6619 75.7736 65.3259 73.3786C69.9899 70.9835 73.6084 67.5652 76.1888 63.1311C78.7692 58.6969 80.0594 53.4916 80.0594 47.5225C80.0594 41.5535 78.7692 36.237 76.1888 31.8399C73.6084 27.4502 69.9899 24.0542 65.3259 21.6591C60.6619 19.2641 55.16 18.0629 48.8276 18.0629H22.0002V76.9822V76.9748Z" fill="white"/>
</svg>
