<svg width="223" height="24" viewBox="0 0 223 24" fill="none" xmlns="http://www.w3.org/2000/svg">
<g clip-path="url(#clip0_1075_11675)">
<path d="M29.8398 0V24H48.8587V19.4401H35.5246V14.1086H48.8587V9.54869H35.5246V4.55993H48.8587V0H29.8398Z" fill="#2B2F65"/>
<path d="M203.983 0V24H223V19.4401H209.668V14.1086H223V9.54869H209.668V4.55993H223V0H203.983Z" fill="#2B2F65"/>
<path d="M66.2835 4.55993L70.617 15H61.9327L66.2835 4.55993ZM63.4411 0L52.4951 24H58.1818L60.0314 19.5599H72.5107L74.3545 24H80.0393L69.0569 0H63.4411Z" fill="#2B2F65"/>
<path d="M83.5615 0V24H101.563V19.4401H89.2463V0H83.5615Z" fill="#2B2F65"/>
<path d="M182.499 0V24H200.5V19.4401H188.184V0H182.499Z" fill="#2B2F65"/>
<path d="M103.71 0V4.55993H112.647V24H118.33V4.55993H127.267V0H103.71Z" fill="#2B2F65"/>
<path d="M156.424 24V0H168.46C171.549 0 173.87 0.571785 175.425 1.71536C176.981 2.85893 177.759 4.36704 177.76 6.2397C177.788 7.3996 177.458 8.54093 176.813 9.51498C176.17 10.4499 175.274 11.1916 174.224 11.6573C173.033 12.1773 171.739 12.4331 170.435 12.4064L171.1 11C172.505 10.974 173.901 11.225 175.205 11.7378C176.334 12.1786 177.305 12.9356 177.996 13.9139C178.663 14.8739 178.996 16.0512 178.996 17.4457C178.996 19.5044 178.166 21.1105 176.505 22.264C174.843 23.4176 172.399 23.9944 169.171 23.9944L156.424 24ZM162.111 19.4401H168.742C170.217 19.4401 171.333 19.206 172.092 18.7378C172.851 18.2697 173.235 17.5206 173.242 16.4906C173.242 15.4856 172.859 14.7366 172.092 14.2434C171.326 13.7503 170.209 13.5056 168.742 13.5094H161.689V10.2172H167.759C169.139 10.2172 170.197 9.98315 170.935 9.51498C171.672 9.04682 172.041 8.33208 172.041 7.37079C172.041 6.43446 171.672 5.73159 170.935 5.26217C170.197 4.79276 169.139 4.55868 167.759 4.55993H162.111V19.4401Z" fill="#2B2F65"/>
<path d="M125.364 24L136.31 0H141.926L152.908 24H147.222L138.24 2.36517H140.067L131.049 24H125.364Z" fill="#2B2F65"/>
<path d="M142.023 21.185C142.023 21.7405 141.855 22.2836 141.539 22.7456C141.223 23.2075 140.774 23.5675 140.249 23.7801C139.723 23.9927 139.145 24.0484 138.588 23.94C138.03 23.8316 137.518 23.5641 137.115 23.1712C136.713 22.7784 136.44 22.2779 136.329 21.733C136.218 21.1881 136.275 20.6233 136.492 20.11C136.71 19.5967 137.078 19.158 137.551 18.8494C138.024 18.5407 138.58 18.376 139.148 18.376C139.911 18.376 140.642 18.6719 141.181 19.1987C141.72 19.7255 142.023 20.44 142.023 21.185Z" fill="#BD9B60"/>
<path d="M0 24V0H12.9029C15.5708 0 17.9226 0.499376 19.958 1.49813C21.9128 2.42317 23.5638 3.8638 24.7248 5.6573C25.8747 7.44007 26.4497 9.55431 26.4497 12C26.4497 14.4232 25.8747 16.5318 24.7248 18.3258C23.567 20.1308 21.9124 21.5806 19.9504 22.5094C17.9149 23.5081 15.5632 24.0075 12.8952 24.0075L0 24ZM5.68669 19.4401H12.6211C14.2605 19.4401 15.6826 19.1373 16.8876 18.5318C18.0619 17.9552 19.0379 17.0556 19.6955 15.9438C20.3625 14.8202 20.696 13.5056 20.696 12C20.696 10.4694 20.3625 9.14919 19.6955 8.03933C19.0327 6.9358 18.0576 6.04292 16.8876 5.46816C15.6814 4.86267 14.2592 4.55992 12.6211 4.55992H5.68669V19.4401Z" fill="#2B2F65"/>
</g>
<defs>
<clipPath id="clip0_1075_11675">
<rect width="223" height="24" fill="white"/>
</clipPath>
</defs>
</svg>
