<svg width="32" height="32" viewBox="0 0 32 32" fill="none" xmlns="http://www.w3.org/2000/svg">
<mask id="mask0_1156_2521" style="mask-type:alpha" maskUnits="userSpaceOnUse" x="0" y="0" width="32" height="32">
<rect width="32" height="32" fill="#D9D9D9"/>
</mask>
<g mask="url(#mask0_1156_2521)">
<path d="M25.8932 26.8337L20.2763 21.7867C19.4501 22.465 18.4999 22.9942 17.4259 23.374C16.3518 23.7539 15.2502 23.9439 14.121 23.9439C11.2844 23.9439 8.88839 22.9806 6.93303 21.054C4.97768 19.1275 4 16.7668 4 13.9719C4 11.2042 4.97768 8.85002 6.93303 6.90936C8.88839 4.96979 11.2844 4 14.121 4C16.9301 4 19.3124 4.96328 21.2677 6.88982C23.2231 8.81637 24.2007 11.1771 24.2007 13.9719C24.2007 15.1387 24.008 16.2512 23.6224 17.3095C23.2368 18.3677 22.7136 19.2903 22.0526 20.0772L27.6695 25.1649C27.8898 25.382 28 25.6533 28 25.9789C28 26.3046 27.8761 26.5895 27.6282 26.8337C27.3803 27.0779 27.0846 27.2 26.7409 27.2C26.3961 27.2 26.1135 27.0779 25.8932 26.8337ZM14.121 21.5018C16.2416 21.5018 18.0389 20.7691 19.5129 19.3039C20.9857 17.8386 21.7221 16.0613 21.7221 13.9719C21.7221 11.8826 20.9857 10.1053 19.5129 8.64C18.0389 7.17474 16.2416 6.44211 14.121 6.44211C11.9729 6.44211 10.1624 7.17474 8.68955 8.64C7.21559 10.1053 6.47862 11.8826 6.47862 13.9719C6.47862 16.0613 7.21559 17.8386 8.68955 19.3039C10.1624 20.7691 11.9729 21.5018 14.121 21.5018Z" fill="#A7B1CD"/>
</g>
</svg>
